<svg viewBox="0 0 32 32" xmlns="http://www.w3.org/2000/svg"><path d="M0 10.375c0 .938.344 1.969.781 3.063s1 2.125 1.438 2.906c1.188 2.063 2.719 4.094 4.469 5.781s3.813 3.094 6.125 3.938c1.344.531 2.688 1.125 4.188 1.125.75 0 1.813-.281 2.781-.688.938-.406 1.781-1.031 2.094-1.781.125-.281.281-.656.375-1.094.094-.406.156-.813.156-1.094 0-.156 0-.313-.031-.344-.094-.188-.313-.344-.563-.5-.563-.281-.656-.375-1.5-.875-.875-.5-1.781-1.063-2.563-1.469-.375-.219-.625-.313-.719-.313-.5 0-1.125.688-1.656 1.438-.563.75-1.188 1.438-1.625 1.438-.219 0-.438-.094-.688-.25s-.5-.281-.656-.375c-2.75-1.563-4.594-3.406-6.156-6.125-.188-.313-.625-.969-.625-1.313 0-.406.563-.875 1.125-1.375.531-.469 1.094-1.031 1.094-1.719 0-.094-.063-.375-.188-.781-.281-.813-.656-1.75-.969-2.656-.156-.438-.281-.75-.313-.906-.063-.094-.094-.219-.125-.375s-.094-.281-.125-.406c-.094-.281-.25-.5-.406-.625a3.72 3.72 0 0 0-.906-.188c-.375 0-.813-.031-1-.031-.094 0-.219 0-.344.031h-.406c-1 .438-1.719 1.313-2.25 2.344-.5 1.031-.813 2.188-.813 3.219z"/></svg>