<svg fill="none" xmlns="http://www.w3.org/2000/svg" viewBox="0 0 172 40"><path d="M49.036 29H60.39v-3.233H52.5V10.673h-3.463V29ZM67.211 29.382c1.375 0 2.584-.306 3.628-.917a6.479 6.479 0 0 0 2.456-2.558c.594-1.094.89-2.354.89-3.78 0-1.417-.292-2.668-.877-3.754a6.457 6.457 0 0 0-2.457-2.571c-1.043-.62-2.257-.93-3.64-.93-1.357 0-2.558.306-3.602.917a6.482 6.482 0 0 0-2.456 2.558c-.594 1.086-.89 2.346-.89 3.78 0 1.417.288 2.673.865 3.768a6.504 6.504 0 0 0 2.443 2.558c1.044.62 2.257.929 3.64.929Zm0-3.233c-1.077 0-1.896-.36-2.456-1.082-.552-.73-.827-1.71-.827-2.94 0-1.196.263-2.163.789-2.902.534-.746 1.366-1.12 2.494-1.12 1.095 0 1.918.365 2.47 1.095.56.73.84 1.705.84 2.927 0 1.18-.276 2.147-.828 2.902-.543.747-1.37 1.12-2.482 1.12ZM81.032 29.382c.645 0 1.239-.077 1.782-.23a5.702 5.702 0 0 0 1.502-.648v1.387c.017.509-.115.933-.395 1.273a2.415 2.415 0 0 1-1.095.776 4.002 4.002 0 0 1-1.463.267c-.484 0-.933-.106-1.35-.318a2.211 2.211 0 0 1-.941-.929l-3.207 1.553c.526.89 1.277 1.608 2.252 2.15.976.552 2.05.828 3.22.828 1.01 0 1.948-.136 2.813-.407.866-.263 1.595-.666 2.19-1.21.602-.543 1.013-1.234 1.234-2.074.076-.297.127-.598.153-.904.033-.297.05-.615.05-.954V15.254h-3.029v.764a5.187 5.187 0 0 0-1.59-.84 5.895 5.895 0 0 0-1.948-.305c-1.315 0-2.46.314-3.436.942-.976.627-1.735 1.489-2.278 2.583-.535 1.086-.802 2.33-.802 3.73 0 1.374.263 2.608.789 3.703.534 1.094 1.277 1.96 2.227 2.596.95.637 2.058.955 3.322.955Zm.56-3.08c-.747 0-1.358-.187-1.833-.56-.475-.373-.827-.874-1.056-1.502-.23-.636-.344-1.34-.344-2.113 0-.763.119-1.46.357-2.087.237-.636.602-1.141 1.094-1.515.5-.381 1.137-.572 1.91-.572 1.085 0 1.862.386 2.328 1.158.467.764.7 1.769.7 3.016 0 1.248-.237 2.257-.712 3.03-.467.763-1.282 1.145-2.444 1.145ZM96 29.382c1.374 0 2.584-.306 3.627-.917a6.475 6.475 0 0 0 2.456-2.558c.594-1.094.891-2.354.891-3.78 0-1.417-.292-2.668-.878-3.754a6.452 6.452 0 0 0-2.456-2.571c-1.044-.62-2.257-.93-3.64-.93-1.358 0-2.558.306-3.602.917a6.482 6.482 0 0 0-2.456 2.558c-.594 1.086-.891 2.346-.891 3.78 0 1.417.288 2.673.865 3.768a6.504 6.504 0 0 0 2.444 2.558c1.043.62 2.257.929 3.64.929Zm0-3.233c-1.078 0-1.897-.36-2.457-1.082-.551-.73-.827-1.71-.827-2.94 0-1.196.263-2.163.79-2.902.534-.746 1.365-1.12 2.494-1.12 1.094 0 1.917.365 2.469 1.095.56.73.84 1.705.84 2.927 0 1.18-.276 2.147-.827 2.902-.543.747-1.37 1.12-2.482 1.12ZM104.5 13.345h3.462v-3.054H104.5v3.054Zm0 15.655h3.462V15.255H104.5V29ZM110.225 35.11h3.487v-6.606c.45.28.946.496 1.489.649a6.71 6.71 0 0 0 1.795.229c1.264 0 2.372-.318 3.322-.955.95-.636 1.688-1.502 2.214-2.596.535-1.095.802-2.33.802-3.704 0-1.4-.271-2.643-.814-3.729-.535-1.094-1.29-1.956-2.266-2.583-.976-.628-2.121-.942-3.436-.942-.713 0-1.366.102-1.96.305a5.202 5.202 0 0 0-1.578.84v-.764h-3.055V35.11Zm6.211-8.808c-1.154 0-1.968-.382-2.444-1.146-.475-.772-.712-1.781-.712-3.029 0-1.247.233-2.252.7-3.016.475-.772 1.251-1.158 2.329-1.158.772 0 1.404.19 1.896.572.501.374.87.879 1.107 1.515.238.628.357 1.324.357 2.087 0 .772-.115 1.477-.344 2.113-.229.628-.581 1.129-1.056 1.502-.475.373-1.086.56-1.833.56ZM129.606 29.382c1.798 0 3.207-.403 4.225-1.21 1.018-.805 1.527-1.913 1.527-3.321 0-1.07-.331-1.913-.992-2.533-.654-.62-1.765-1.133-3.335-1.54a42.936 42.936 0 0 1-2.393-.662c-.517-.17-.861-.335-1.031-.496a.813.813 0 0 1-.241-.598c0-.399.19-.704.572-.917.391-.212.904-.297 1.54-.254 1.349.102 2.088.679 2.215 1.73l3.538-.636c-.178-1.247-.789-2.235-1.833-2.965-1.043-.738-2.375-1.107-3.996-1.107-1.663 0-2.991.39-3.984 1.17-.992.781-1.489 1.833-1.489 3.157 0 1.052.344 1.884 1.031 2.495.687.602 1.871 1.12 3.551 1.552.993.263 1.722.475 2.189.637.475.16.781.326.916.496.136.161.204.378.204.65 0 .432-.17.771-.509 1.017-.339.238-.823.357-1.451.357-.764 0-1.396-.183-1.896-.548-.492-.365-.811-.87-.955-1.514l-3.538.534c.229 1.434.874 2.546 1.935 3.335 1.069.78 2.469 1.17 4.2 1.17ZM141.744 29.407c.993 0 1.858-.165 2.597-.496a5.526 5.526 0 0 0 1.858-1.324V29h3.054V15.255h-3.487v6.974c0 .849-.098 1.536-.293 2.062-.186.517-.428.912-.725 1.183a2.39 2.39 0 0 1-.955.535c-.339.093-.657.14-.954.14-.738 0-1.311-.165-1.718-.496a2.823 2.823 0 0 1-.866-1.235 5.408 5.408 0 0 1-.318-1.463 18.224 18.224 0 0 1-.051-1.21v-6.49h-3.513v7.712c0 .23.017.594.051 1.095.034.5.132 1.056.293 1.667a5.85 5.85 0 0 0 .802 1.744c.382.56.912 1.022 1.591 1.387.678.365 1.557.547 2.634.547ZM151.258 29h3.487v-8.324c0-.789.216-1.43.649-1.921.441-.501 1.022-.751 1.744-.751.755 0 1.345.254 1.769.763.432.5.649 1.205.649 2.113V29h3.462v-8.324c0-.789.216-1.43.649-1.921.441-.501 1.022-.751 1.743-.751.756 0 1.345.254 1.769.763.433.5.65 1.205.65 2.113V29h3.461v-9.036c0-1.502-.403-2.715-1.209-3.64-.797-.934-1.981-1.4-3.551-1.4-.882 0-1.692.19-2.431.572a4.66 4.66 0 0 0-1.769 1.566 4.06 4.06 0 0 0-1.527-1.553c-.662-.39-1.485-.585-2.469-.585-.832 0-1.595.165-2.291.496a4.75 4.75 0 0 0-1.731 1.336v-1.502h-3.054V29Z" fill="#23216E" class="ccompli2"/><path d="M20 0C8.954 0 0 8.954 0 20c11.046 0 20-8.954 20-20ZM20 40c11.046 0 20-8.954 20-20-11.046 0-20 8.954-20 20Z" fill="#45D2B0" class="ccustom"/><path d="M20 0c11.046 0 20 8.954 20 20-11.046 0-20-8.954-20-20ZM20 40C8.954 40 0 31.046 0 20c11.046 0 20 8.954 20 20Z" fill="#23216E" class="ccompli2"/></svg>