<svg xmlns="http://www.w3.org/2000/svg" viewBox="0 0 297.034 40.685"><defs><clipPath id="a"><path data-name="Rectangle 40" fill="#e8314f" d="M0 0h297.034v40.685H0z"/></clipPath></defs><g data-name="Group 420"><g data-name="Group 2"><g data-name="Group 1" clip-path="url(#a)" fill="#e8314f"><path data-name="Path 74" d="M291.444 21.389a5.536 5.536 0 1 0-5.561-5.512 5.535 5.535 0 0 0 5.561 5.512"/><path data-name="Path 75" d="M291.527 39.259a5.536 5.536 0 1 0-5.561-5.512 5.535 5.535 0 0 0 5.561 5.512"/><path data-name="Path 76" d="m47.57 9.625-.025 29.959-10.219-.007-.112-3.659a8.362 8.362 0 0 1-3.457 3.4 10.808 10.808 0 0 1-5.142 1.185q-6.211-.007-8.762-4.942a8.906 8.906 0 0 1-3.753 3.622 11.72 11.72 0 0 1-5.6 1.3q-5.169 0-7.837-3.226T0 27.82L.016 9.589l10.45.007-.013 16.259q0 5.283 3.887 5.287 4.241 0 4.246-5.686L18.6 9.602l10.448.007-.013 16.257q-.007 5.283 3.887 5.288 4.181 0 4.185-5.689l.011-15.851Z"/><path data-name="Path 77" d="M64.474 15.93a4.74 4.74 0 0 1 3.309 1.163 5.685 5.685 0 0 1 1.683 3.2 4.653 4.653 0 0 1 .117 1.1l-10.573-.01q.931-5.458 5.46-5.453m8.96 16.351a23.9 23.9 0 0 1-5.023.549 12.183 12.183 0 0 1-6.239-1.365 6.519 6.519 0 0 1-2.984-4.387l13.4.011a7.406 7.406 0 0 0 2.026-1.286 9 9 0 0 0 2.155-3.2 12.331 12.331 0 0 0 .811-4.738 6.025 6.025 0 0 1-4.893-1.893 6.2 6.2 0 0 1-1.573-4.017 6.072 6.072 0 0 1 .3-1.83 16.581 16.581 0 0 0-6.759-1.338 16.323 16.323 0 0 0-8.189 2 14.09 14.09 0 0 0-5.521 5.6 16.989 16.989 0 0 0-1.981 8.3 16.016 16.016 0 0 0 2.171 8.509 14.183 14.183 0 0 0 6.208 5.489 22.358 22.358 0 0 0 9.671 1.923 34.869 34.869 0 0 0 6.358-.574 24.226 24.226 0 0 0 5.547-1.683l-.923-7.548a20.869 20.869 0 0 1-4.559 1.476"/><path data-name="Path 78" d="M98.576 9.156a7.237 7.237 0 0 0-4.588 1.537 8.849 8.849 0 0 0-2.908 4.322l-.11-5.283h-8.1a11.615 11.615 0 0 1 1.457 6.037 16.692 16.692 0 0 1-1.723 7.463 18.33 18.33 0 0 1-1.869 3l-.011 13.45 10.51.007.009-12.831q.01-7.9 5.987-7.891c.621 0 1.181-.043 2.037-.04.892 0 2.133.04 2.72.038l.016-9.226a9.169 9.169 0 0 0-3.426-.585"/><path data-name="Path 79" d="m120.799 39.728.025-29.959 10.385.007-.054 3.659a8.362 8.362 0 0 1 3.457-3.4 10.807 10.807 0 0 1 5.142-1.185q6.211.007 8.762 4.942a8.924 8.924 0 0 1 3.751-3.627 11.745 11.745 0 0 1 5.6-1.3q5.169 0 7.837 3.224t2.664 9.441l-.016 18.231-10.45-.007.015-16.253q0-5.283-3.887-5.287-4.241 0-4.246 5.686l-.011 15.854-10.452-.013.013-16.259q.007-5.28-3.887-5.285-4.181 0-4.185 5.689l-.011 15.851Z"/><path data-name="Path 80" d="M185.32 15.93q-4.527 0-5.46 5.453l10.566.007a4.527 4.527 0 0 0-.117-1.1 5.677 5.677 0 0 0-1.68-3.2 4.723 4.723 0 0 0-3.309-1.16m2.536 24.679a22.408 22.408 0 0 1-9.668-1.922 14.24 14.24 0 0 1-6.208-5.491 16.031 16.031 0 0 1-2.171-8.509 17.011 17.011 0 0 1 1.983-8.3 14.07 14.07 0 0 1 5.52-5.6 16.337 16.337 0 0 1 8.187-2 16 16 0 0 1 7.839 1.835 12.483 12.483 0 0 1 5.082 5.173 16.859 16.859 0 0 1 1.763 7.985c0 .542-.022 1.082-.06 1.627s-.1 1.1-.175 1.683l-19.915-.016a6.526 6.526 0 0 0 2.987 4.391 12.206 12.206 0 0 0 6.242 1.369 23.9 23.9 0 0 0 5.023-.549 20.929 20.929 0 0 0 4.557-1.476l.925 7.55a24.227 24.227 0 0 1-5.547 1.68 34.69 34.69 0 0 1-6.358.574"/><path data-name="Path 81" d="M218.181 31.342a5.557 5.557 0 0 0 4.3-1.857 6.727 6.727 0 0 0 1.687-4.7 6.7 6.7 0 0 0-1.68-4.732 5.575 5.575 0 0 0-4.295-1.83 5.632 5.632 0 0 0-4.355 1.824 6.693 6.693 0 0 0-1.687 4.73 6.732 6.732 0 0 0 1.68 4.7 5.614 5.614 0 0 0 4.353 1.864m-3.26 9.343a12.048 12.048 0 0 1-6.878-2.01 13.4 13.4 0 0 1-4.676-5.574 19.034 19.034 0 0 1-1.678-8.214 18.054 18.054 0 0 1 1.809-8.186 14.881 14.881 0 0 1 4.882-5.715 11.9 11.9 0 0 1 6.912-2.115 9.743 9.743 0 0 1 8.357 4.071L223.676 0l10.51.007-.045 39.766-9.93-.009-.112-3.833q-2.85 4.762-9.179 4.754"/><path data-name="Rectangle 38" d="M236.816 9.763h10.509v29.961h-10.509z"/><path data-name="Path 82" d="M265.632 31.323a5.55 5.55 0 0 0 4.3-1.857 6.727 6.727 0 0 0 1.687-4.7 6.7 6.7 0 0 0-1.68-4.732 5.568 5.568 0 0 0-4.297-1.836 5.632 5.632 0 0 0-4.355 1.824 6.693 6.693 0 0 0-1.687 4.73 6.741 6.741 0 0 0 1.678 4.7 5.619 5.619 0 0 0 4.355 1.864m-3.26 9.343a12.048 12.048 0 0 1-6.878-2.01 13.4 13.4 0 0 1-4.671-5.579 19.034 19.034 0 0 1-1.678-8.214 18.048 18.048 0 0 1 1.808-8.187 14.881 14.881 0 0 1 4.882-5.715 11.894 11.894 0 0 1 6.91-2.115 10.864 10.864 0 0 1 5.222 1.259 8.869 8.869 0 0 1 3.6 3.515l.119-3.831 9.93.007-.022 29.962-9.93-.009-.112-3.833a9.167 9.167 0 0 1-3.719 3.511 11.573 11.573 0 0 1-5.46 1.243"/><path data-name="Rectangle 39" d="M97.066 33.358h18.172v6.289H97.066z"/></g></g></g></svg>